<mxfile host="app.diagrams.net" modified="2023-11-04T04:54:48.059Z" agent="Mozilla/5.0 (Macintosh; Intel Mac OS X 10_15_7) AppleWebKit/605.1.15 (KHTML, like Gecko) Version/15.1 Safari/605.1.15" version="22.0.8" etag="N6YwTkE8qYvCkD8YPHhm" type="github">
  <diagram name="Page-1" id="eKusWg0a_NUGI0boZmMt">
    <mxGraphModel>
      <root>
        <mxCell id="0" />
        <mxCell id="1" parent="0" />
      </root>
    </mxGraphModel>
  </diagram>
</mxfile>
